<?xml version="1.0" standalone="no"?>
<!DOCTYPE svg PUBLIC "-//W3C//DTD SVG 20010904//EN"
 "http://www.w3.org/TR/2001/REC-SVG-20010904/DTD/svg10.dtd">
<svg version="1.0" xmlns="http://www.w3.org/2000/svg"
 width="16.000000pt" height="16.000000pt" viewBox="0 0 16.000000 16.000000"
 preserveAspectRatio="xMidYMid meet">
<metadata>
Created by potrace 1.11, written by Peter Selinger 2001-2013
</metadata>
<g transform="translate(0.000000,16.000000) scale(0.001563,-0.001563)"
fill="#000000" stroke="none">
<path d="M4685 10229 c-272 -24 -527 -67 -804 -135 -724 -178 -1441 -540
-2011 -1014 -306 -255 -569 -525 -794 -815 -43 -55 -85 -109 -94 -121 -10 -11
-21 -28 -27 -36 -5 -9 -53 -80 -106 -159 -478 -713 -763 -1532 -839 -2409 -13
-150 -13 -714 0 -855 50 -540 173 -1053 366 -1520 81 -196 262 -552 373 -732
517 -835 1239 -1492 2116 -1923 509 -251 975 -394 1565 -482 147 -22 182 -23
695 -23 589 0 623 2 980 71 1555 299 2900 1324 3614 2753 249 497 405 1001
493 1591 22 147 23 182 23 695 0 513 -1 548 -23 695 -90 604 -241 1088 -502
1605 -121 241 -235 434 -367 622 -271 387 -592 736 -943 1028 -810 672 -1791
1073 -2850 1165 -133 11 -732 11 -865 -1z"/>
</g>
</svg>
